<svg xmlns="http://www.w3.org/2000/svg" enable-background="new 0 0 32 32" viewBox="0 0 32 32" fill="#fff"><path d="M23.70654 12.7547c-.00006 0 3.97955.93622 3.97955.93622.50311.12354 1.04401-.05121 1.40942-.41077.10925.0271 2.08606-3.49884 2.19684-3.63379.42023-.71362.1825-1.63324-.53113-2.05402-.71265-.41779-1.63177-.1825-2.05304.53113l-.48822.82892C22.7049-.92157 7.79523-.24762 3.16614 10.164c-.77594 1.81061 1.87903 3.01776 2.73151 1.23755 3.51184-8.00653 15.02777-8.74152 19.50897-1.32739 0-.00018-1.01385-.2384-1.01385-.2384C22.46722 9.41559 21.79535 12.27197 23.70654 12.7547zM2.68872 18.9577c0-.00006-1.97101 3.3465-1.97101 3.3465-.96796 1.70911 1.54468 3.20789 2.58411 1.52283 0 .00006.48822-.82886.48822-.82886 2.4682 4.3194 7.06274 7.06708 12.21497 7.06708 5.51959 0 10.5589-3.24988 12.83893-8.27844.34167-.75366.00781-1.64301-.74683-1.98468-.75513-.34167-1.64301-.00781-1.98468.74677-1.7948 3.95862-5.76221 6.51733-10.10742 6.51733-3.90784 0-7.41302-2.00323-9.40161-5.18964l1.01385.23822c1.92505.42212 2.59741-2.43719.68622-2.91895.00006 0-3.97955-.93622-3.97955-.93622C3.69891 18.11853 3.01489 18.40009 2.68872 18.9577z"/></svg>